<?xml version="1.0" standalone="no"?>
<!DOCTYPE svg PUBLIC "-//W3C//DTD SVG 20010904//EN"
 "http://www.w3.org/TR/2001/REC-SVG-20010904/DTD/svg10.dtd">
<svg version="1.0" xmlns="http://www.w3.org/2000/svg"
 width="200.000000pt" height="200.000000pt" viewBox="0 0 200.000000 200.000000"
 preserveAspectRatio="xMidYMid meet">

<g transform="translate(0.000000,200.000000) scale(0.100000,-0.100000)"
fill="#000000" stroke="none">
<path d="M265 1551 c-11 -5 -29 -19 -40 -31 -19 -21 -20 -38 -23 -509 -1 -376
1 -492 11 -511 7 -14 28 -33 47 -42 32 -17 89 -18 740 -18 651 0 708 1 740 18
19 9 40 28 47 42 10 19 12 135 11 512 l-3 488 -28 27 -27 28 -728 2 c-400 1
-736 -2 -747 -6z m1475 -51 c17 -17 20 -33 20 -115 l0 -95 -760 0 -760 0 0 95
c0 151 -88 135 760 135 707 0 720 0 740 -20z m20 -615 c0 -352 -1 -366 -20
-385 -20 -20 -33 -20 -740 -20 -707 0 -720 0 -740 20 -19 19 -20 33 -20 385
l0 365 760 0 760 0 0 -365z"/>
<path d="M400 1462 c-71 -23 -60 -132 13 -132 30 0 67 39 67 72 0 37 -46 71
-80 60z m38 -66 c-2 -13 -10 -21 -23 -21 -23 0 -33 34 -14 45 20 13 40 -1 37
-24z"/>
<path d="M582 1460 c-53 -22 -51 -97 3 -122 52 -24 106 32 85 87 -7 19 -50 49
-63 44 -1 0 -12 -4 -25 -9z m48 -45 c10 -12 10 -18 0 -30 -16 -19 -39 -19 -46
0 -6 15 11 45 26 45 4 0 13 -7 20 -15z"/>
<path d="M790 1462 c-50 -16 -66 -76 -30 -112 40 -40 110 -9 110 49 0 39 -45
75 -80 63z m38 -66 c-2 -13 -10 -21 -23 -21 -23 0 -33 34 -14 45 20 13 40 -1
37 -24z"/>
<path d="M526 1171 c-15 -23 8 -31 89 -31 55 0 88 -4 95 -12 6 -7 58 -98 116
-203 57 -104 112 -196 121 -202 26 -20 423 -18 423 1 0 23 -24 26 -215 26
-150 0 -185 3 -195 15 -11 13 10 15 181 15 107 0 199 4 206 8 22 14 31 57 38
181 6 100 5 125 -6 132 -8 5 -146 9 -308 9 l-295 0 -27 33 c-26 31 -29 32
-122 35 -61 3 -97 0 -101 -7z m819 -213 c-4 -61 -9 -117 -12 -125 -4 -10 -47
-13 -203 -13 l-198 0 -66 120 c-36 65 -66 122 -66 125 0 3 124 5 276 5 l277 0
-8 -112z"/>
<path d="M946 658 c-23 -32 -20 -54 11 -77 40 -33 93 -7 93 44 0 51 -75 74
-104 33z m64 -32 c0 -8 -5 -18 -11 -22 -14 -8 -33 11 -25 25 10 16 36 13 36
-3z"/>
<path d="M1282 673 c-24 -10 -34 -53 -18 -79 21 -31 52 -39 81 -20 61 40 6
127 -63 99z m48 -47 c0 -21 -21 -31 -30 -15 -5 7 -6 17 -4 21 9 14 34 9 34 -6z"/>
</g>
</svg>
